<?xml version="1.0" encoding="utf-8"?>
<svg width="50" height="52" viewBox="0 0 50 52" xmlns="http://www.w3.org/2000/svg" xmlns:xlink="http://www.w3.org/1999/xlink" xmlns:bx="https://boxy-svg.com">
  <defs>
    <linearGradient id="gradient-1" bx:pinned="true">
      <stop offset="0" style="stop-color: rgb(100, 25, 229);"/>
      <stop offset="1" style="stop-color: rgb(217, 38, 166);"/>
    </linearGradient>
    <linearGradient id="gradient-2" bx:pinned="true">
      <stop offset="0" style="stop-color: rgb(217, 38, 169);"/>
      <stop offset="1" style="stop-color: rgb(100, 25, 230);"/>
    </linearGradient>
    <linearGradient id="color-0" gradientUnits="userSpaceOnUse" bx:pinned="true">
      <stop style="stop-color: rgb(100, 25, 229);"/>
    </linearGradient>
    <linearGradient id="gradient-2-6" gradientUnits="userSpaceOnUse" x1="34.674" y1="5.346" x2="34.674" y2="56.463" gradientTransform="matrix(0.72246, -0.691412, 0.746037, 0.779535, -23.54067, 24.378777)" xlink:href="#gradient-2"/>
  </defs>
  <title>Logomark</title>
  <!-- <rect x="1.952" y="9.111" width="9.549" height="17.758" style="stroke-width: 0px; stroke-miterlimit: 1; stroke-opacity: 0; fill: none;" transform="matrix(0.871722, -0.490001, -0.013521, 1.154755, 9.619214, 2.659936)"/>
  <rect x="1.93" y="4.094" width="9.441" height="7.981" style="stroke-width: 0px; stroke-miterlimit: 1; stroke-opacity: 0; fill: none;" transform="matrix(0.868199, -0.496216, 1.00483, 0.577503, -3.486178, 4.954473)"/>
  <rect x="4.198" y="4.243" width="20.539" height="8.27" style="stroke-width: 0px; stroke-miterlimit: 1; stroke-opacity: 0; fill: none;" transform="matrix(0.871722, -0.490001, -0.013521, 1.154755, 17.132076, 36.682816)"/>
  <rect x="4.174" y="4.202" width="20.416" height="8.192" style="stroke-width: 0px; stroke-miterlimit: 1; stroke-opacity: 0; fill: none;" transform="matrix(0.868199, -0.496216, 1.00483, 0.577503, 4.031101, 33.371693)"/>
  <g>
    <rect x="2.05" y="5.005" width="10.033" height="9.757" style="stroke-width: 0px; stroke-miterlimit: 1; stroke-opacity: 0; fill: none;" transform="matrix(-0.002631, -0.999997, 1.001619, 0.614112, 4.750963, 42.815815)"/>
    <rect x="6.505" y="4.298" width="31.821" height="8.377" style="stroke-width: 0px; stroke-miterlimit: 1; stroke-opacity: 0; fill: none;" transform="matrix(-0.008565, -0.999963, 1.00528, 0.612196, -2.730756, 42.904118)"/>
  </g>
  <rect x="1.947" y="4.278" width="9.527" height="8.339" style="stroke-width: 0px; stroke-miterlimit: 1; stroke-opacity: 0; fill: none;" transform="matrix(-0.002631, -0.999997, 1.001619, 0.614112, 25.958408, 21.611944)"/>
  <rect x="1.925" y="4.243" width="9.419" height="8.27" style="stroke-width: 0px; stroke-miterlimit: 1; stroke-opacity: 0; fill: none;" transform="matrix(0.871722, -0.490001, -0.013521, 1.154755, 38.344009, 13.700881)"/> -->
  <path d="M49.626 11.564a.809.809 0 0 1 .028.209v10.972a.8.8 0 0 1-.402.694l-9.209 5.302V39.25c0 .286-.152.55-.4.694L20.42 51.01c-.044.025-.092.041-.14.058-.018.006-.035.017-.054.022a.805.805 0 0 1-.41 0c-.022-.006-.042-.018-.063-.026-.044-.016-.09-.03-.132-.054L.402 39.944A.801.801 0 0 1 0 39.25V6.334c0-.072.01-.142.028-.21.006-.023.02-.044.028-.067.015-.042.029-.085.051-.124.015-.026.037-.047.055-.071.023-.032.044-.065.071-.093.023-.023.053-.04.079-.06.029-.024.055-.05.088-.069h.001l9.61-5.533a.802.802 0 0 1 .8 0l9.61 5.533h.002c.032.02.059.045.088.068.026.02.055.038.078.06.028.029.048.062.072.094.017.024.04.045.054.071.023.04.036.082.052.124.008.023.022.044.028.068a.809.809 0 0 1 .028.209v20.559l8.008-4.611v-10.51c0-.07.01-.141.028-.208.007-.024.02-.045.028-.068.016-.042.03-.085.052-.124.015-.026.037-.047.054-.071.024-.032.044-.065.072-.093.023-.023.052-.04.078-.06.03-.024.056-.05.088-.069h.001l9.611-5.533a.801.801 0 0 1 .8 0l9.61 5.533c.034.02.06.045.09.068.025.02.054.038.077.06.028.029.048.062.072.094.018.024.04.045.054.071.023.039.036.082.052.124.009.023.022.044.028.068zm-1.574 10.718v-9.124l-3.363 1.936-4.646 2.675v9.124l8.01-4.611zm-9.61 16.505v-9.13l-4.57 2.61-13.05 7.448v9.216l17.62-10.144zM1.602 7.719v31.068L19.22 48.93v-9.214l-9.204-5.209-.003-.002-.004-.002c-.031-.018-.057-.044-.086-.066-.025-.02-.054-.036-.076-.058l-.002-.003c-.026-.025-.044-.056-.066-.084-.02-.027-.044-.05-.06-.078l-.001-.003c-.018-.03-.029-.066-.042-.1-.013-.03-.03-.058-.038-.09v-.001c-.01-.038-.012-.078-.016-.117-.004-.03-.012-.06-.012-.09v-.002-21.481L4.965 9.654 1.602 7.72zm8.81-5.994L2.405 6.334l8.005 4.609 8.006-4.61-8.006-4.608zm4.164 28.764l4.645-2.674V7.719l-3.363 1.936-4.646 2.675v20.096l3.364-1.937zM39.243 7.164l-8.006 4.609 8.006 4.609 8.005-4.61-8.005-4.608zm-.801 10.605l-4.646-2.675-3.363-1.936v9.124l4.645 2.674 3.364 1.937v-9.124zM20.02 38.33l11.743-6.704 5.87-3.35-8-4.606-9.211 5.303-8.395 4.833 7.993 4.524z" fill-rule="evenodd" style="paint-order: fill; fill: url(#gradient-2-6);"/>
  <!-- <rect x="1.905" y="4.094" width="9.317" height="7.981" style="stroke-width: 0px; stroke-miterlimit: 1; stroke-opacity: 0; fill: none;" transform="matrix(0.868199, -0.496216, 1.00483, 0.577503, 25.427588, 10.354815)"/> -->
</svg>